<svg xmlns="http://www.w3.org/2000/svg" viewBox="0 0 1440 320"><path fill="#0099ff" fill-opacity="1" d="M0,320L30,282.7C60,245,120,171,180,149.3C240,128,300,160,360,176C420,192,480,192,540,202.7C600,213,660,235,720,224C780,213,840,171,900,181.3C960,192,1020,256,1080,240C1140,224,1200,128,1260,112C1320,96,1380,160,1410,192L1440,224L1440,320L1410,320C1380,320,1320,320,1260,320C1200,320,1140,320,1080,320C1020,320,960,320,900,320C840,320,780,320,720,320C660,320,600,320,540,320C480,320,420,320,360,320C300,320,240,320,180,320C120,320,60,320,30,320L0,320Z"></path></svg>